<svg color="rgb(0, 185, 106)"
     fill="subjects.arabic.100" width="1em" height="1em" viewBox="0 0 226 200" class="sc-bSoiow cnjIcR"
     style="height: 18px; width: 18px;"
     xmlns="http://www.w3.org/2000/svg"
>
    <path fill="currentColor"
          d="M225.889 12.15c0-6.91-5.598-12.148-12.5-12.148L125.889 0a12.506 12.506 0 00-12.129 9.473L78.194 151.326 49.56 94.061a12.52 12.52 0 00-11.172-6.915h-25c-6.902 0-12.5 5.59-12.5 12.149 0 6.558 5.598 12.5 12.5 12.5h17.273l40.313 80.586a12.51 12.51 0 0011.176 6.906c.457 0 .907-.022 1.365-.071a12.51 12.51 0 0010.765-9.399L135.65 24.27h77.74c6.914.38 12.5-5.21 12.5-12.12zm-3.672 78.668c-4.883-4.882-12.793-4.882-17.676 0l-16.152 16.172-16.164-16.16c-4.883-4.883-12.793-4.883-17.676 0-4.883 4.883-4.883 12.793 0 17.676l16.164 16.164-16.164 16.164c-4.883 4.883-4.883 12.793 0 17.676 2.434 2.426 5.637 3.636 8.84 3.636 3.203 0 6.398-1.22 8.836-3.662l16.164-16.142 16.164 16.164c2.43 2.43 5.633 3.64 8.836 3.64 3.203 0 6.398-1.22 8.836-3.662 4.883-4.882 4.883-12.793 0-17.675l-16.164-16.164 16.156-16.17a12.472 12.472 0 000-17.657z"></path>
</svg>
