<svg color="rgb(0, 183, 236)" fill="black" width="1em" height="1em" viewBox="0 0 200 200" className="sc-dfauwV iLXJWe"  xmlns="http://www.w3.org/2000/svg">
    <path fill="currentColor"
          d="M12.5 0h1.074a12.5 12.5 0 018.836 3.66l20.05 20.047-9.378 9.375c-2.441 2.438-2.441 6.41 0 8.832 2.438 2.461 6.41 2.461 8.832 0l9.375-9.371 22.422 22.418-9.375 9.375a6.201 6.201 0 000 8.828 6.201 6.201 0 008.828 0l9.375-9.375 22.422 22.422-9.375 9.375a6.201 6.201 0 000 8.828 6.2 6.2 0 008.828 0l9.375-9.375 22.422 22.422-9.375 9.375a6.2 6.2 0 000 8.828 6.2 6.2 0 008.828 0l9.375-9.375 22.422 22.422-9.375 9.375a6.2 6.2 0 000 8.828 6.2 6.2 0 008.828 0l9.375-9.375 20.039 20.039a12.568 12.568 0 013.672 8.867v1.055c0 6.914-5.586 12.5-12.5 12.5H25c-13.809 0-25-11.211-25-25V12.5C0 5.598 5.598 0 12.5 0zM50 100v50h50l-50-50z"></path>
</svg>
