<svg color="rgb(255, 85, 0)" fill="subjects.socialScience.100" width="1em" height="1em" viewBox="0 0 200 200" xmlns="http://www.w3.org/2000/svg"
      style="height: 18px; width: 18px;">
<g>
    <path fill="currentColor"
          d="M75 112.5H12.5C5.617 112.5 0 118.117 0 125v62.5c0 6.883 5.617 12.5 12.5 12.5H75c6.883 0 12.5-5.617 12.5-12.5V125c0-6.875-5.625-12.5-12.5-12.5zm-13.555 52.578c2.431 2.43 2.431 6.406 0 8.836-2.43 2.43-6.406 2.43-8.836 0l-8.859-8.836-8.836 8.836c-2.43 2.43-6.406 2.43-8.836 0-2.43-2.431-2.43-6.406 0-8.836l8.832-8.828-8.836-8.836c-2.43-2.431-2.43-6.406 0-8.836 2.431-2.431 6.406-2.431 8.836 0l8.84 8.844 8.836-8.836c2.43-2.431 6.406-2.431 8.836 0 2.43 2.43 2.43 6.406 0 8.836l-8.844 8.828 8.867 8.828zM187.5 112.5H125c-6.883 0-12.5 5.617-12.5 12.5v62.5c0 6.883 5.617 12.5 12.5 12.5h62.5c6.883 0 12.5-5.617 12.5-12.5V125c0-6.875-5.625-12.5-12.5-12.5zm-6.25 55.898c0 3.75-2.812 6.602-6.25 6.602h-37.535c-3.402 0-6.215-2.812-6.215-6.25s2.813-6.25 5.898-6.25h37.524c3.766 0 6.578 2.813 6.578 5.898zm0-25c0 3.75-2.812 6.602-6.25 6.602h-37.523c-3.414 0-6.227-2.812-6.227-6.25s2.813-6.25 5.898-6.25h37.536c3.754 0 6.566 2.813 6.566 5.898zM187.5 0H125c-6.883 0-12.5 5.617-12.5 12.5V75c0 6.883 5.617 12.5 12.5 12.5h62.5c6.883 0 12.5-5.617 12.5-12.5V12.5C200 5.617 194.375 0 187.5 0zm-6.25 43.398c0 3.79-2.812 6.602-6.25 6.602h-12.5v12.516c0 3.422-2.812 6.234-6.25 6.234S150 65.937 150 62.5V50h-12.516c-3.422 0-6.234-2.813-6.234-6.25 0-3.438 2.813-6.25 5.898-6.25H150V24.984c0-3.43 2.813-6.234 5.898-6.234 3.086 0 6.602 2.805 6.602 6.234V37.5h12.516c3.422 0 6.234 2.813 6.234 5.898zM75 0H12.5C5.617 0 0 5.617 0 12.5V75c0 6.883 5.617 12.5 12.5 12.5H75c6.883 0 12.5-5.617 12.5-12.5V12.5C87.5 5.617 81.875 0 75 0zm-6.25 43.398c0 3.79-2.813 6.602-6.25 6.602H24.984c-3.43 0-6.234-2.813-6.234-6.25 0-3.438 2.805-6.25 6.234-6.25H62.52c3.419 0 6.231 2.813 6.231 5.898z"></path>
</g>
</svg>
